<?xml version="1.0" encoding="UTF-8" standalone="no"?>
<!DOCTYPE svg PUBLIC "-//W3C//DTD SVG 1.1//EN" "http://www.w3.org/Graphics/SVG/1.1/DTD/svg11.dtd">
<svg width="100%" height="100%" viewBox="0 0 401 357" version="1.1" xmlns="http://www.w3.org/2000/svg" xmlns:xlink="http://www.w3.org/1999/xlink" xml:space="preserve" xmlns:serif="http://www.serif.com/" style="fill-rule:evenodd;clip-rule:evenodd;stroke-linejoin:round;stroke-miterlimit:2;">
    <g transform="matrix(1,0,0,1,-888.755,-5118.48)">
        <g id="Artboard8" transform="matrix(0.491422,0,0,0.338068,-2330,5118.48)">
            <rect x="6549.89" y="0" width="816" height="1056" style="fill:none;"/>
            <g transform="matrix(1,0,0,1,0.813965,1.18319)">
                <g transform="matrix(2.4224,0,0,3.23767,3815.81,-16824.6)">
                    <path d="M1464.85,5218.44C1464.85,5212.63 1462.72,5207.05 1458.94,5202.94C1455.16,5198.82 1450.03,5196.51 1444.69,5196.51C1384.84,5196.51 1208.67,5196.51 1148.82,5196.51C1143.48,5196.51 1138.35,5198.82 1134.57,5202.94C1130.79,5207.05 1128.66,5212.63 1128.66,5218.44C1128.66,5277.73 1128.66,5440.73 1128.66,5500.02C1128.66,5505.83 1130.79,5511.41 1134.57,5515.52C1138.35,5519.63 1143.48,5521.94 1148.82,5521.94C1208.67,5521.94 1384.84,5521.94 1444.69,5521.94C1450.03,5521.94 1455.16,5519.63 1458.94,5515.52C1462.72,5511.41 1464.85,5505.83 1464.85,5500.02C1464.85,5440.73 1464.85,5277.73 1464.85,5218.44Z" style="fill:rgb(0,100,146);"/>
                </g>
                <g transform="matrix(1.22843,0,0,1.78567,3641.25,-2349.29)">
                    <text x="2412.48px" y="1719.32px" style="font-family:'MuseoModerno-Bold', 'MuseoModerno';font-weight:700;font-size:136.163px;fill:rgb(255,216,67);">PHO<tspan x="2704.41px 2778.89px " y="1719.32px 1719.32px ">TO</tspan></text>
                    <path d="M2895.58,1719.32L2895.58,1661.86C2895.58,1653.69 2897.31,1646.66 2900.76,1640.76C2904.21,1634.86 2909,1630.32 2915.12,1627.14C2921.25,1623.97 2928.26,1622.38 2936.16,1622.38C2944.06,1622.38 2951.05,1623.97 2957.13,1627.14C2963.21,1630.32 2968,1634.86 2971.49,1640.76C2974.99,1646.66 2976.74,1653.69 2976.74,1661.86L2976.74,1719.32L2954.13,1719.32L2954.13,1660.64C2954.13,1657.1 2953.39,1653.88 2951.89,1650.97C2950.39,1648.07 2948.33,1645.8 2945.69,1644.16C2943.06,1642.53 2939.88,1641.71 2936.16,1641.71C2932.53,1641.71 2929.35,1642.53 2926.63,1644.16C2923.91,1645.8 2921.82,1648.07 2920.37,1650.97C2918.91,1653.88 2918.19,1657.1 2918.19,1660.64L2918.19,1719.32L2895.58,1719.32Z" style="fill:rgb(255,216,67);"/>
                </g>
                <g transform="matrix(1.34771,0,0,1.95905,3365.53,-2412.71)">
                    <text x="2412.48px" y="1719.32px" style="font-family:'MuseoModerno-Medium', 'MuseoModerno';font-weight:500;font-size:136.163px;fill:white;">VISIO</text>
                    <path d="M2841.26,1719.32L2841.26,1661.32C2841.26,1653.24 2842.91,1646.3 2846.22,1640.49C2849.54,1634.68 2854.1,1630.21 2859.91,1627.07C2865.72,1623.94 2872.39,1622.38 2879.93,1622.38C2887.46,1622.38 2894.13,1623.94 2899.94,1627.07C2905.75,1630.21 2910.34,1634.68 2913.69,1640.49C2917.05,1646.3 2918.73,1653.24 2918.73,1661.32L2918.73,1719.32L2902.39,1719.32L2902.39,1659.96C2902.39,1655.69 2901.49,1651.79 2899.67,1648.25C2897.85,1644.71 2895.29,1641.89 2891.98,1639.81C2888.66,1637.72 2884.65,1636.67 2879.93,1636.67C2875.39,1636.67 2871.44,1637.72 2868.08,1639.81C2864.72,1641.89 2862.11,1644.71 2860.25,1648.25C2858.39,1651.79 2857.46,1655.69 2857.46,1659.96L2857.46,1719.32L2841.26,1719.32Z" style="fill:white;"/>
                </g>
                <g transform="matrix(0.968773,0,0,1.40823,4075.83,-5168.58)">
                    <path d="M3055.09,3977.51C3050.3,3984.25 3045,3990.56 3039.21,3996.35C2987.91,4047.65 2917.1,4038.77 2881.16,3976.54C2845.23,3914.3 2857.71,3822.13 2909.01,3770.83C2960.31,3719.53 3031.13,3728.41 3067.06,3790.64C3069.85,3795.48 3072.35,3800.49 3074.56,3805.67L3039.78,3811.64C3012.82,3769.64 2962.9,3764.58 2926.45,3801.04C2888.89,3838.59 2879.76,3906.07 2906.07,3951.63C2932.37,3997.19 2984.22,4003.69 3021.77,3966.14L3021.89,3966.01L3055.09,3977.51ZM3039.52,3942.78L3069.4,3953.13C3066.7,3958.76 3063.72,3964.23 3060.44,3969.48L3028.7,3958.49C3032.72,3953.6 3036.33,3948.34 3039.52,3942.78ZM3085.02,3841.47C3090.86,3875.56 3086.6,3912.35 3073.22,3944.57L3043.91,3934.42C3056.74,3907.59 3060.53,3875.54 3054.13,3846.78L3085.02,3841.47ZM3078.03,3814.54C3080.08,3820.33 3081.8,3826.26 3083.19,3832.31L3051.74,3837.72C3049.88,3831.68 3047.54,3825.83 3044.71,3820.26L3078.03,3814.54Z" style="fill:white;"/>
                </g>
                <g transform="matrix(0.968773,0,0,1.40823,4075.83,-1894.38)">
                    <path d="M2906.78,1571.77L3111.02,1642.48L3116.61,1626.34L3147.2,1664.74L3099.42,1675.99L3105,1659.86L2910.03,1592.35C2908.25,1585.69 2907.18,1578.77 2906.78,1571.77ZM2917.45,1517.07L3114.77,1483.17L3111.88,1466.34L3157.2,1485.21L3120.78,1518.13L3117.88,1501.3L2910.22,1536.97C2911.99,1530.09 2914.41,1523.4 2917.45,1517.07Z" style="fill:rgb(255,216,67);"/>
                </g>
            </g>
        </g>
    </g>
</svg>
