<?xml version="1.0" encoding="UTF-8" standalone="no"?>
<!DOCTYPE svg PUBLIC "-//W3C//DTD SVG 1.1//EN" "http://www.w3.org/Graphics/SVG/1.1/DTD/svg11.dtd">
<svg width="100%" height="100%" viewBox="0 0 539 536" version="1.1" xmlns="http://www.w3.org/2000/svg" xmlns:xlink="http://www.w3.org/1999/xlink" xml:space="preserve" xmlns:serif="http://www.serif.com/" style="fill-rule:evenodd;clip-rule:evenodd;stroke-linejoin:round;stroke-miterlimit:2;">
    <g transform="matrix(1,0,0,1,-1317.74,-5721.78)">
        <g id="Artboard4" transform="matrix(0.280712,0,0,0.495838,194.268,5721.78)">
            <rect x="4002.24" y="0" width="1920" height="1080" style="fill:none;"/>
            <g transform="matrix(3.06752,0,0,1.73663,-10413.9,-2189.58)">
                <circle cx="5012.55" cy="1571.77" r="224.918"/>
            </g>
            <g transform="matrix(3.56237,0,0,2.01679,-692.056,-11539.6)">
                <path d="M1634.74,6076.22C1629.95,6082.96 1624.66,6089.27 1618.87,6095.06C1567.57,6146.36 1496.75,6137.48 1460.82,6075.25C1424.88,6013.02 1437.36,5920.84 1488.66,5869.54C1539.96,5818.24 1610.78,5827.12 1646.71,5889.36C1649.5,5894.19 1652,5899.21 1654.21,5904.38L1619.43,5910.36C1592.48,5868.36 1542.56,5863.3 1506.1,5899.75C1468.55,5937.31 1459.41,6004.79 1485.72,6050.35C1512.02,6095.91 1563.87,6102.41 1601.42,6064.85L1601.55,6064.73L1634.74,6076.22ZM1619.17,6041.49L1649.06,6051.84C1646.36,6057.48 1643.37,6062.94 1640.09,6068.2L1608.35,6057.21C1612.37,6052.32 1615.98,6047.05 1619.17,6041.49ZM1664.67,5940.18C1670.51,5974.27 1666.25,6011.07 1652.88,6043.29L1623.56,6033.14C1636.39,6006.31 1640.18,5974.25 1633.78,5945.49L1664.67,5940.18ZM1657.68,5913.25C1659.74,5919.04 1661.45,5924.98 1662.84,5931.03L1631.39,5936.43C1629.53,5930.39 1627.2,5924.54 1624.37,5918.98L1657.68,5913.25Z" style="fill:white;"/>
            </g>
            <g transform="matrix(3.56237,0,0,2.01679,-5751.86,-2617.82)">
                <path d="M2906.78,1571.77L3111.02,1642.48L3116.61,1626.34L3147.2,1664.74L3099.42,1675.99L3105,1659.86L2910.03,1592.35C2908.25,1585.69 2907.18,1578.77 2906.78,1571.77ZM2917.45,1517.07L3114.77,1483.17L3111.88,1466.34L3157.2,1485.21L3120.78,1518.13L3117.88,1501.3L2910.22,1536.97C2911.99,1530.09 2914.41,1523.4 2917.45,1517.07Z" style="fill:white;"/>
            </g>
        </g>
    </g>
</svg>
