<?xml version="1.0" encoding="UTF-8" standalone="no"?>
<!DOCTYPE svg PUBLIC "-//W3C//DTD SVG 1.1//EN" "http://www.w3.org/Graphics/SVG/1.1/DTD/svg11.dtd">
<svg width="100%" height="100%" viewBox="0 0 539 536" version="1.1" xmlns="http://www.w3.org/2000/svg" xmlns:xlink="http://www.w3.org/1999/xlink" xml:space="preserve" xmlns:serif="http://www.serif.com/" style="fill-rule:evenodd;clip-rule:evenodd;stroke-linejoin:round;stroke-miterlimit:2;">
    <g transform="matrix(1,0,0,1,-3992.02,-2364.32)">
        <g id="Artboard4" transform="matrix(0.280712,0,0,0.495838,2868.54,2364.32)">
            <rect x="4002.24" y="0" width="1920" height="1080" style="fill:none;"/>
            <g transform="matrix(3.06752,0,0,1.73663,-10413.9,-2189.58)">
                <circle cx="5012.55" cy="1571.77" r="224.918" style="fill:rgb(0,100,146);"/>
            </g>
            <g transform="matrix(1.90451,-1.07821,1.33398,1.30807,-3119.62,1475.73)">
                <path d="M2973.21,1550.4C3069.17,1550.4 3147.07,1628.3 3147.07,1724.25C3147.07,1820.2 3069.17,1898.11 2973.21,1898.11C2877.26,1898.11 2799.36,1820.2 2799.36,1724.25C2799.36,1628.3 2877.26,1550.4 2973.21,1550.4ZM2973.21,1596.98C3043.46,1596.98 3100.49,1654.01 3100.49,1724.25C3100.49,1794.5 3043.46,1851.53 2973.21,1851.53C2902.97,1851.53 2845.94,1794.5 2845.94,1724.25C2845.94,1654.01 2902.97,1596.98 2973.21,1596.98Z" style="fill:white;"/>
            </g>
            <g transform="matrix(3.56237,0,0,2.01679,-5751.86,-2617.82)">
                <path d="M2906.78,1571.77L3111.02,1642.48L3116.61,1626.34L3147.2,1664.74L3099.42,1675.99L3105,1659.86L2910.03,1592.35C2908.25,1585.69 2907.18,1578.77 2906.78,1571.77ZM2917.45,1517.07L3114.77,1483.17L3111.88,1466.34L3157.2,1485.21L3120.78,1518.13L3117.88,1501.3L2910.22,1536.97C2911.99,1530.09 2914.41,1523.4 2917.45,1517.07Z" style="fill:rgb(255,216,67);"/>
                <path d="M3093.13,1665.62L2906.97,1601.17C2904.04,1600.16 2901.8,1597.75 2901.01,1594.75C2899.07,1587.49 2897.9,1579.94 2897.46,1572.3C2897.28,1569.19 2898.66,1566.2 2901.15,1564.32C2903.63,1562.44 2906.89,1561.93 2909.83,1562.95L3105.25,1630.61L3107.79,1623.29C3108.9,1620.07 3111.68,1617.72 3115.03,1617.14C3118.38,1616.57 3121.78,1617.87 3123.91,1620.53L3154.5,1658.92C3156.49,1661.42 3157.06,1664.77 3156.02,1667.79C3154.97,1670.81 3152.45,1673.09 3149.34,1673.82L3101.56,1685.08C3098.24,1685.86 3094.77,1684.77 3092.49,1682.25C3090.21,1679.72 3089.48,1676.16 3090.6,1672.94L3093.13,1665.62ZM2906.78,1571.77L3111.02,1642.48L3116.61,1626.34L3147.2,1664.74L3099.42,1675.99L3105,1659.86L2910.03,1592.35C2908.25,1585.69 2907.18,1578.77 2906.78,1571.77ZM3103.99,1475.56L3102.68,1467.92C3102.1,1464.57 3103.4,1461.17 3106.06,1459.05C3108.72,1456.92 3112.33,1456.42 3115.47,1457.73L3160.78,1476.6C3163.74,1477.83 3165.85,1480.48 3166.39,1483.63C3166.94,1486.79 3165.83,1490 3163.45,1492.14L3127.03,1525.05C3124.51,1527.33 3120.94,1528.06 3117.72,1526.95C3114.51,1525.84 3112.15,1523.06 3111.58,1519.71L3110.26,1512.08L2911.8,1546.17C2908.68,1546.71 2905.5,1545.62 2903.35,1543.29C2901.2,1540.97 2900.39,1537.71 2901.18,1534.64C2903.11,1527.17 2905.74,1519.91 2909.04,1513.03C2910.34,1510.31 2912.89,1508.38 2915.87,1507.87L3103.99,1475.56ZM2917.45,1517.07L3114.77,1483.17L3111.88,1466.34L3157.2,1485.21L3120.78,1518.13L3117.88,1501.3L2910.22,1536.97C2911.99,1530.09 2914.41,1523.4 2917.45,1517.07Z" style="fill:rgb(0,100,146);"/>
            </g>
        </g>
    </g>
</svg>
