<?xml version="1.0" encoding="UTF-8" standalone="no"?>
<!DOCTYPE svg PUBLIC "-//W3C//DTD SVG 1.1//EN" "http://www.w3.org/Graphics/SVG/1.1/DTD/svg11.dtd">
<svg width="100%" height="100%" viewBox="0 0 508 507" version="1.1" xmlns="http://www.w3.org/2000/svg" xmlns:xlink="http://www.w3.org/1999/xlink" xml:space="preserve" xmlns:serif="http://www.serif.com/" style="fill-rule:evenodd;clip-rule:evenodd;stroke-linejoin:round;stroke-miterlimit:2;">
    <g transform="matrix(1,0,0,1,-7237,0)">
        <g id="PhotonVision-Icon-singleColor" transform="matrix(0.264062,0,0,0.469444,7237.5,0)">
            <rect x="0" y="0" width="1920" height="1080" style="fill:none;"/>
            <clipPath id="_clip1">
                <rect x="0" y="0" width="1920" height="1080"/>
            </clipPath>
            <g clip-path="url(#_clip1)">
                <g transform="matrix(3.78698,0,0,2.13018,-27408.3,0)">
                    <path d="M7490.89,-0.228C7630.86,-0.228 7744.5,113.413 7744.5,253.386C7744.5,393.359 7630.86,507 7490.89,507C7350.91,507 7237.27,393.359 7237.27,253.386C7237.27,113.413 7350.91,-0.228 7490.89,-0.228ZM7553.11,366.903C7546.84,375.725 7539.9,383.991 7532.32,391.575C7465.14,458.749 7372.4,447.123 7325.35,365.628C7278.3,284.133 7294.64,163.432 7361.82,96.257C7428.99,29.083 7521.73,40.71 7568.78,122.205C7572.43,128.537 7575.71,135.106 7578.61,141.876L7533.06,149.701C7497.76,94.702 7432.39,88.081 7384.65,135.817C7335.48,184.995 7323.52,273.358 7357.96,333.02C7392.41,392.681 7460.3,401.193 7509.48,352.015L7509.64,351.852L7553.11,366.903ZM7358.89,261.243L7626.35,353.841L7633.66,332.71L7673.72,382.985L7611.15,397.728L7618.47,376.597L7363.15,288.2C7360.83,279.476 7359.42,270.417 7358.89,261.243ZM7592.3,188.76C7599.95,233.396 7594.37,281.578 7576.85,323.772L7538.47,310.481C7555.26,275.347 7560.23,233.371 7551.85,195.709L7592.3,188.76ZM7372.87,189.62L7631.26,145.232L7627.47,123.193L7686.81,147.905L7639.12,191.004L7635.34,168.966L7363.4,215.682C7365.73,206.671 7368.89,197.91 7372.87,189.62Z"/>
                </g>
            </g>
        </g>
    </g>
</svg>
